# xmcd CD database file
#
# Track frame offsets:
#	150
#	15778
#	42601
#	61840
#	77112
#	96004
#	117198
#	132197
#	151187
#	166357
#
# Disc length: 2440 seconds
#
# Revision: 0
# Processed by: cddbd v1.5.2PL0 Copyright (c) Steve Scherf et al.
# Submitted via: CDex 1.70beta2
#
DISCID=6f09860a
DTITLE=Swoon - Jazz and Groove
DYEAR=2002
DGENRE=Jazz
TTITLE0=Straighten up and fly right
TTITLE1=Chocolate
TTITLE2=Killing mr softly
TTITLE3=My baby just cares for me
TTITLE4=Misty
TTITLE5=Someone to watch over me
TTITLE6=Sway
TTITLE7=Makin' whoope
TTITLE8=LOVE
TTITLE9=youve got a friend
EXTD=YEAR: 2002
EXTT0=
EXTT1=
EXTT2=
EXTT3=
EXTT4=
EXTT5=
EXTT6=
EXTT7=
EXTT8=
EXTT9=
PLAYORDER=
